<svg viewBox="0 0 340 340" xmlns="http://www.w3.org/2000/svg">
  <path d="m 54.06811,112.85708 q 1.431,-7.14286 2.385,-13.333341 1.43101,-6.190457 1.43101,-13.333321 0,-5.238077 -2.862,-8.571417 -2.861987,-3.809527 -12.879028,-3.809527 H 28.310041 L 34.034068,44.761885 H 155.19244 L 145.1754,107.61899 h 0.47701 q 18.60307,-38.095219 39.11415,-52.857111 20.51106,-14.761891 51.03918,-14.761891 58.1942,0 58.1942,43.8095 0,28.571392 -18.12605,41.904712 -18.12608,13.33336 -50.56218,13.33336 0,-25.23812 -5.24701,-39.523821 -5.24703,-14.761891 -17.64911,-14.761891 -13.83303,0 -29.0971,18.571432 -14.78704,18.57143 -28.1431,49.52381 -12.87903,30.95239 -21.46505,68.09523 l -18.12609,79.04761 H 14 Z" fill="#4b14ff" />
  <path d="m 54.93011,108.46148 q 1.53322,-7.69231 2.55537,-14.358988 1.53321,-6.666647 1.53321,-14.358961 0,-5.641007 -3.06643,-9.230751 -3.06642,-4.102569 -13.798958,-4.102569 H 27.332191 l 6.132877,-31.28202 H 163.27762 l -10.73255,67.692269 h 0.51107 q 19.93188,-41.025614 41.90803,-56.923045 21.97614,-15.897421 54.68484,-15.897421 62.35093,0 62.35093,47.179457 0,30.769209 -19.42077,45.128159 -19.4208,14.359 -54.17376,14.359 0,-27.17951 -5.6218,-42.564118 -5.62182,-15.897421 -18.90975,-15.897421 -14.82112,0 -31.17547,19.999998 -15.84325,20.000011 -30.15332,53.333341 -13.79896,33.33334 -22.99828,73.33332 l -19.42082,85.1282 H 12 Z" fill="#4b64ff" />
  <path d="m 55.7921,104.0659 q 1.63544,-8.241768 2.72573,-15.384645 1.63544,-7.142844 1.63544,-15.384581 0,-6.043963 -3.27088,-9.890101 -3.270853,-4.395607 -14.718878,-4.395607 H 26.354321 L 32.896058,25.494487 H 171.36275 l -11.44806,72.527442 h 0.54514 Q 181.72051,54.065919 205.16173,37.032948 228.60293,20 263.49221,20 q 66.50773,0 66.50773,50.549427 0,32.967013 -20.71559,48.351593 -20.71552,15.38465 -57.78535,15.38465 0,-29.12089 -5.99659,-45.604415 -5.99658,-17.032941 -20.17036,-17.032941 -15.80918,0 -33.25382,21.428568 -16.89946,21.428568 -32.16354,57.142848 -14.71889,35.71429 -24.53148,78.57143 l -20.71554,91.20877 H 10 Z" fill="#4bb4ff" />
</svg>
