<svg xmlns="http://www.w3.org/2000/svg" viewBox="0 0 340 340">
  <path d="M55.068 112.857q1.431-7.143 2.385-13.333 1.431-6.19 1.431-13.334 0-5.238-2.862-8.571-2.862-3.81-12.879-3.81H29.31l5.724-29.047h121.158l-10.017 62.857h.477q18.603-38.095 39.115-52.857Q206.277 40 236.806 40 295 40 295 83.81q0 28.57-18.126 41.904-18.126 13.334-50.562 13.334 0-25.239-5.247-39.524-5.247-14.762-17.65-14.762-13.832 0-29.097 18.571-14.787 18.572-28.143 49.524-12.879 30.952-21.465 68.095L106.584 300H15Z" fill="#4b14ff" />
  <path d="M55.93 108.461q1.533-7.692 2.555-14.359 1.534-6.666 1.534-14.358 0-5.641-3.067-9.231-3.066-4.103-13.799-4.103h-14.82l6.132-31.282h129.813l-10.733 67.692h.511q19.932-41.025 41.908-56.923Q217.94 30 250.65 30 313 30 313 77.18q0 30.769-19.42 45.128-19.42 14.359-54.174 14.359 0-27.18-5.621-42.565-5.622-15.897-18.91-15.897-14.821 0-31.176 20-15.843 20-30.153 53.333-13.799 33.334-22.998 73.334L111.126 310H13Z" fill="#4b64ff" />
  <path d="M55.792 104.066q1.636-8.242 2.726-15.385 1.635-7.143 1.635-15.384 0-6.044-3.27-9.89-3.271-4.396-14.72-4.396H26.355l6.542-33.517h138.467l-11.448 72.528h.545q21.26-43.956 44.702-60.99Q228.602 20 263.492 20 330 20 330 70.55q0 32.966-20.716 48.351-20.715 15.385-57.785 15.385 0-29.121-5.997-45.605-5.996-17.033-20.17-17.033-15.81 0-33.254 21.429-16.9 21.428-32.163 57.143-14.72 35.714-24.532 78.571L114.668 320H10Z" fill="#4bb4ff" />
</svg>
