<svg viewBox="0 0 512 512" xmlns="http://www.w3.org/2000/svg">
  <path d="m 236.06811,198.85708 q 1.431,-7.14286 2.385,-13.33334 1.43101,-6.19046 1.43101,-13.33332 0,-5.23808 -2.862,-8.57142 -2.86199,-3.80953 -12.87903,-3.80953 h -13.83305 l 5.72403,-29.04759 h 121.15837 l -10.01704,62.85711 h 0.47701 q 18.60307,-38.09522 39.11415,-52.85711 20.51106,-14.76189 51.03918,-14.76189 58.1942,0 58.1942,43.8095 0,28.57139 -18.12605,41.90471 -18.12608,13.33336 -50.56218,13.33336 0,-25.23812 -5.24701,-39.52382 -5.24703,-14.76189 -17.64911,-14.76189 -13.83303,0 -29.0971,18.57143 -14.78704,18.57143 -28.1431,49.52381 -12.87903,30.95239 -21.46505,68.09523 l -18.12609,79.04761 H 196 Z" fill="#4b14ff" />
  <path d="m 236.93011,194.46148 q 1.53322,-7.69231 2.55537,-14.35899 1.53321,-6.66664 1.53321,-14.35896 0,-5.64101 -3.06643,-9.23075 -3.06642,-4.10257 -13.79896,-4.10257 h -14.82111 l 6.13288,-31.28202 h 129.81255 l -10.73255,67.69227 h 0.51107 q 19.93188,-41.02561 41.90803,-56.92305 21.97614,-15.89742 54.68484,-15.89742 62.35093,0 62.35093,47.17946 0,30.76921 -19.42077,45.12816 -19.4208,14.359 -54.17376,14.359 0,-27.17951 -5.6218,-42.56412 -5.62182,-15.89742 -18.90975,-15.89742 -14.82112,0 -31.17547,20 -15.84325,20.00001 -30.15332,53.33334 -13.79896,33.33334 -22.99828,73.33332 l -19.42082,85.1282 H 194 Z" fill="#4b64ff" />
  <path d="m 237.7921,190.0659 q 1.63544,-8.24177 2.72573,-15.38465 1.63544,-7.14284 1.63544,-15.38458 0,-6.04396 -3.27088,-9.8901 -3.27085,-4.3956 -14.71888,-4.3956 h -15.80919 l 6.54174,-33.51648 h 138.46669 l -11.44806,72.52744 h 0.54514 q 21.26068,-43.95601 44.7019,-60.98898 Q 410.60293,106 445.49221,106 q 66.50773,0 66.50773,50.54943 0,32.96701 -20.71559,48.35159 -20.71552,15.38465 -57.78535,15.38465 0,-29.12089 -5.99659,-45.60441 -5.99658,-17.03295 -20.17036,-17.03295 -15.80918,0 -33.25382,21.42857 -16.89946,21.42857 -32.16354,57.14285 -14.71889,35.71429 -24.53148,78.57143 l -20.71554,91.20877 H 192 Z" fill="#4bb4ff" />
</svg>
